<?xml version="1.0" standalone="no"?>
<!DOCTYPE svg PUBLIC "-//W3C//DTD SVG 20010904//EN"
 "http://www.w3.org/TR/2001/REC-SVG-20010904/DTD/svg10.dtd">
<svg version="1.0" xmlns="http://www.w3.org/2000/svg"
 width="880.000000pt" height="586.000000pt" viewBox="0 0 880.000000 586.000000"
 preserveAspectRatio="xMidYMid meet">

<g transform="translate(0.000000,586.000000) scale(0.100000,-0.100000)"
fill="#1890ff" stroke="none">
<path d="M3125 5041 c-48 -22 -78 -54 -94 -100 -8 -24 -11 -205 -11 -608 l0
-574 -100 -187 c-93 -173 -104 -188 -140 -203 -73 -32 -70 7 -70 -788 0 -457
3 -718 10 -730 5 -10 23 -31 41 -45 l31 -26 1615 0 1615 0 39 39 39 39 0 720
0 721 -31 35 c-33 39 -50 46 -124 55 l-50 6 -106 200 c-58 110 -120 214 -137
232 -36 37 -85 53 -159 53 l-52 0 -3 163 c-3 151 -5 164 -26 195 -42 58 -85
72 -221 72 l-119 0 -3 158 c-4 152 -5 160 -31 199 -49 74 -44 73 -510 73 -316
0 -418 3 -430 13 -9 6 -56 68 -106 137 -51 70 -106 134 -124 145 -31 19 -54
20 -368 23 -310 2 -338 1 -375 -17z m710 -53 c15 -7 69 -71 126 -150 89 -122
104 -138 138 -148 25 -6 189 -10 440 -10 267 1 407 -3 421 -10 41 -22 50 -60
50 -215 l0 -145 -265 0 c-263 0 -265 0 -284 23 -11 12 -57 74 -104 137 -48 67
-98 123 -118 135 -32 19 -52 20 -379 20 -338 0 -346 0 -380 -22 -20 -12 -46
-40 -58 -61 -22 -40 -22 -40 -22 -596 l0 -556 -160 0 -160 0 0 771 0 771 34
34 34 34 331 0 c233 0 338 -3 356 -12z m375 -432 c14 -8 70 -74 125 -148 55
-73 111 -138 125 -145 19 -10 130 -13 440 -13 368 0 418 -2 439 -16 41 -29 51
-72 51 -219 l0 -135 -329 0 -329 0 -98 136 c-67 92 -110 143 -134 155 -32 18
-62 19 -381 19 -343 0 -346 0 -380 -23 -18 -12 -44 -38 -56 -56 -23 -34 -23
-37 -23 -377 l0 -344 -105 0 -105 0 0 541 c0 591 0 585 58 621 24 16 63 17
352 17 257 0 330 -3 350 -13z m257 -433 c20 -11 68 -67 123 -143 50 -69 103
-133 118 -142 25 -16 64 -18 440 -18 445 0 455 -1 484 -53 9 -15 14 -78 16
-199 l2 -178 -970 0 -971 0 3 339 3 339 25 27 c14 15 34 31 45 35 11 5 162 9
335 9 282 1 319 -1 347 -16z m-1447 -613 l0 -120 -65 0 c-68 0 -73 3 -51 35 7
11 34 62 60 113 26 50 50 92 52 92 2 0 4 -54 4 -120z m2749 5 c34 -63 61 -117
61 -120 0 -3 -29 -5 -65 -5 l-65 0 0 120 c0 66 2 120 4 120 2 0 32 -52 65
-115z m234 -196 c14 -6 30 -22 36 -36 8 -17 11 -228 11 -709 l0 -686 -29 -29
-29 -29 -1581 0 c-1137 0 -1587 3 -1604 11 -14 6 -30 22 -36 36 -16 35 -16
1376 1 1406 6 12 18 27 27 34 22 17 3168 19 3204 2z"/>
<path d="M3198 4898 c-13 -35 1 -38 197 -38 107 0 196 4 199 9 4 5 3 16 0 25
-5 14 -32 16 -199 16 -145 0 -194 -3 -197 -12z"/>
<path d="M3543 4465 c-3 -9 -1 -21 4 -26 5 -5 88 -8 199 -7 181 3 189 4 189
23 0 19 -8 20 -193 23 -168 2 -193 0 -199 -13z"/>
<path d="M3837 4044 c-13 -13 -7 -42 9 -48 24 -9 327 -7 342 3 8 5 12 17 10
27 -3 18 -16 19 -179 22 -96 1 -178 -1 -182 -4z"/>
<path d="M4220 2809 c-114 -19 -240 -51 -276 -70 -27 -13 -59 -19 -107 -19
-62 0 -71 -3 -98 -29 -40 -40 -40 -89 0 -133 l29 -32 124 -6 c68 -3 129 -9
136 -14 26 -16 214 -46 327 -52 143 -8 275 7 383 41 56 18 100 25 160 25 95 0
143 17 161 56 20 44 13 83 -18 115 -27 26 -36 29 -97 29 -51 0 -79 6 -118 25
-103 50 -197 67 -381 71 -93 1 -195 -1 -225 -7z m408 -59 c26 -6 78 -20 115
-32 l68 -22 -3 -60 -3 -60 -69 -23 c-110 -37 -195 -46 -371 -40 -153 5 -250
21 -358 56 l-38 13 3 56 3 56 58 17 c59 18 208 46 282 53 61 6 260 -3 313 -14z
m-718 -125 l0 -46 -61 3 c-49 2 -64 7 -75 23 -12 18 -11 24 2 43 13 18 25 22
75 22 l59 0 0 -45z m1092 28 c44 -40 9 -73 -78 -73 l-64 0 0 38 c0 21 3 42 7
45 14 15 116 7 135 -10z"/>
<path d="M5912 2368 c-8 -8 -12 -63 -12 -183 0 -162 -1 -173 -21 -191 -20 -18
-45 -19 -482 -22 -467 -3 -483 -4 -470 -39 7 -19 925 -19 963 0 13 7 35 28 47
46 22 32 23 43 23 211 0 153 -2 179 -16 184 -20 8 -18 8 -32 -6z"/>
</g>
</svg>
