<?xml version="1.0" standalone="no"?>
<!DOCTYPE svg PUBLIC "-//W3C//DTD SVG 20010904//EN"
 "http://www.w3.org/TR/2001/REC-SVG-20010904/DTD/svg10.dtd">
<svg version="1.0" xmlns="http://www.w3.org/2000/svg"
 width="880.000000pt" height="586.000000pt" viewBox="0 0 880.000000 586.000000"
 preserveAspectRatio="xMidYMid meet">

<g transform="translate(0.000000,586.000000) scale(0.100000,-0.100000)"
fill="#1890ff" stroke="none">
<path d="M3303 5016 c-226 -73 -363 -270 -363 -520 0 -67 -3 -86 -14 -86 -23
0 -66 -59 -66 -90 0 -31 43 -90 66 -90 12 0 14 -44 14 -267 l0 -266 -40 -34
c-23 -20 -53 -62 -72 -101 -30 -60 -33 -76 -33 -152 0 -76 4 -93 33 -152 19
-39 50 -81 72 -101 l40 -34 0 -269 0 -269 -30 -17 c-66 -38 -65 -126 1 -163
l36 -20 2 -108 c3 -163 45 -276 139 -372 110 -112 210 -155 381 -163 110 -4
115 -6 138 -33 13 -15 37 -30 53 -34 36 -8 87 17 102 50 l11 25 432 0 c372 0
434 2 445 15 10 12 10 18 0 30 -11 13 -73 15 -446 15 l-434 0 0 140 0 140 540
0 c482 0 541 2 547 16 3 8 1 20 -4 25 -7 7 -201 10 -541 9 l-531 -1 -16 30
c-19 38 -43 51 -93 51 -41 0 -77 -27 -84 -65 -3 -18 -11 -20 -76 -19 -80 0
-109 15 -149 74 -19 27 -23 47 -23 111 0 62 3 79 14 79 23 0 56 50 56 85 0 36
-30 80 -60 90 -19 6 -20 16 -20 274 l0 267 51 53 c74 77 93 126 94 241 0 84
-3 102 -28 151 -15 31 -48 75 -72 98 l-45 41 0 265 c0 217 2 265 14 265 7 0
25 12 40 26 35 36 36 95 1 129 -13 14 -31 25 -40 25 -12 0 -15 12 -15 53 0 72
33 135 85 165 35 20 51 22 132 20 99 -3 124 -14 167 -72 19 -25 21 -43 24
-246 2 -176 6 -221 18 -230 11 -10 17 -10 29 0 12 10 15 46 15 201 0 216 -9
271 -51 323 -51 61 -98 79 -214 80 -84 1 -106 -3 -140 -21 -79 -42 -115 -105
-115 -202 0 -46 -4 -60 -17 -65 -9 -4 -72 -6 -141 -5 l-124 1 4 116 c4 108 7
123 38 187 67 139 206 243 356 265 301 43 496 -33 631 -247 46 -72 76 -92 89
-58 9 22 -87 163 -149 222 -120 113 -212 143 -437 143 -135 -1 -165 -4 -227
-24z m41 -672 c9 -8 16 -19 16 -24 0 -5 -7 -16 -16 -24 -13 -13 -46 -16 -208
-16 -197 0 -216 4 -216 40 0 36 19 40 216 40 162 0 195 -3 208 -16z m-64 -370
c0 -230 -1 -246 -17 -239 -65 25 -180 25 -245 0 -17 -7 -18 9 -18 239 l0 246
140 0 140 0 0 -246z m-15 -307 c143 -73 201 -239 132 -379 -96 -196 -358 -225
-488 -54 -150 196 -3 476 241 463 45 -3 81 -12 115 -30z m-177 -597 c50 -9
120 -2 165 15 16 7 17 -9 17 -249 l0 -256 -135 0 -135 0 0 256 c0 240 1 256
18 249 9 -4 41 -11 70 -15z m256 -559 c14 -15 15 -24 6 -40 -10 -20 -18 -21
-205 -21 -106 0 -200 3 -209 6 -21 8 -20 50 2 63 10 6 95 11 203 11 171 0 187
-2 203 -19z m-64 -183 c0 -83 14 -131 52 -174 48 -54 95 -74 178 -74 l70 0 0
-140 0 -140 -93 0 c-144 0 -240 34 -330 118 -110 103 -146 187 -154 355 l-6
117 142 0 141 0 0 -62z m424 -174 c13 -13 16 -46 16 -200 0 -109 -4 -193 -10
-205 -12 -21 -40 -25 -58 -7 -17 17 -17 399 0 416 16 16 33 15 52 -4z"/>
<path d="M3071 3538 c-139 -72 -88 -272 70 -272 82 0 139 59 139 144 0 114
-109 180 -209 128z m122 -58 c63 -50 27 -160 -53 -160 -36 0 -77 28 -89 60
-29 84 71 155 142 100z"/>
<path d="M4190 4713 c-98 -129 -143 -255 -120 -336 42 -151 208 -196 307 -84
53 60 64 126 37 218 -28 97 -134 259 -169 259 -7 0 -32 -26 -55 -57z m100 -73
c73 -113 97 -218 65 -280 -15 -29 -60 -70 -77 -70 -5 0 -8 39 -7 86 2 87 -7
112 -35 101 -13 -5 -16 -24 -16 -97 0 -49 -4 -90 -9 -90 -17 0 -62 42 -77 73
-32 61 -3 167 78 285 16 23 33 42 37 42 5 0 23 -23 41 -50z"/>
<path d="M5025 4713 c-154 -195 -164 -384 -23 -463 55 -31 132 -25 182 14 96
72 103 204 20 355 -43 77 -101 151 -120 151 -8 0 -34 -26 -59 -57z m95 -65
c38 -52 68 -117 82 -180 9 -39 8 -55 -6 -92 -16 -41 -56 -86 -77 -86 -5 0 -10
42 -11 92 -3 82 -5 93 -22 96 -28 6 -36 -15 -36 -105 0 -46 -4 -83 -9 -83 -20
0 -71 63 -81 101 -17 60 9 137 84 252 17 26 34 47 38 47 4 0 22 -19 38 -42z"/>
<path d="M4008 4165 c-28 -16 -68 -73 -68 -98 0 -14 -17 -17 -107 -19 l-108
-3 -3 -779 c-1 -570 1 -782 9 -792 10 -12 107 -14 568 -12 535 3 556 4 559 22
2 10 -2 22 -10 27 -7 5 -251 9 -543 8 l-530 0 -3 516 -2 515 895 0 895 0 0
-74 c0 -77 13 -104 45 -92 13 5 15 49 15 324 0 234 -3 321 -12 330 -8 8 -48
12 -113 12 l-100 1 -22 47 c-37 79 -48 82 -297 82 l-215 0 -36 -31 c-19 -17
-39 -45 -43 -63 l-8 -31 -107 -3 -106 -3 -19 44 c-11 24 -33 54 -50 65 -29 21
-41 22 -244 22 -166 -1 -219 -4 -240 -15z m463 -64 c16 -16 29 -34 29 -40 0
-8 -78 -11 -250 -11 -170 0 -250 3 -250 11 0 21 22 50 43 59 12 5 107 9 210 9
l189 1 29 -29z m828 3 c62 -52 54 -54 -219 -54 -172 0 -250 3 -250 11 0 6 13
24 29 40 l29 29 190 0 c190 0 190 0 221 -26z m261 -299 l0 -195 -895 0 -895 0
0 188 c0 104 3 192 7 195 3 4 406 7 895 7 l888 0 0 -195z"/>
<path d="M4180 3932 c-19 -9 -45 -33 -58 -52 -20 -29 -23 -44 -19 -89 3 -48 9
-59 45 -93 37 -34 47 -38 93 -38 98 0 156 63 147 159 -10 103 -114 160 -208
113z m127 -64 c45 -50 36 -115 -19 -144 -88 -46 -174 71 -103 141 32 33 93 34
122 3z"/>
<path d="M5014 3931 c-53 -32 -74 -68 -74 -125 0 -93 54 -146 149 -146 42 0
56 5 85 30 40 36 61 88 53 136 -16 98 -131 155 -213 105z m131 -66 c33 -32 33
-84 1 -122 -19 -22 -32 -28 -65 -28 -50 0 -79 26 -88 78 -5 31 -1 40 25 67 39
39 91 41 127 5z"/>
<path d="M4104 3424 c-84 -41 -62 -172 31 -190 l35 -6 2 -242 c3 -233 4 -241
23 -241 19 0 20 8 23 243 l2 242 488 0 c444 0 490 2 522 18 65 32 77 113 24
163 l-26 24 -546 2 c-477 3 -551 1 -578 -13z m1114 -56 c7 -7 12 -21 12 -33 0
-45 5 -45 -562 -45 l-538 0 -16 25 c-16 24 -16 27 1 45 18 19 33 20 555 20
403 0 539 -3 548 -12z"/>
<path d="M5332 3252 c-135 -177 -237 -357 -288 -507 -35 -104 -38 -249 -6
-336 41 -115 115 -200 220 -251 59 -30 76 -33 152 -33 75 0 93 4 153 32 118
56 196 158 233 303 30 116 -3 281 -92 470 -79 167 -250 400 -294 400 -12 0
-42 -29 -78 -78z m213 -157 c73 -110 130 -222 167 -335 27 -82 32 -110 32
-200 1 -97 -1 -110 -30 -170 -36 -76 -104 -148 -171 -182 -68 -33 -198 -33
-263 0 -171 88 -246 284 -190 492 38 137 168 373 288 519 l36 44 38 -44 c22
-24 63 -80 93 -124z"/>
<path d="M5360 2819 c-49 -63 -105 -157 -133 -224 -28 -70 -28 -176 1 -232 80
-154 284 -154 364 1 47 91 22 234 -63 367 -41 64 -106 139 -121 139 -4 0 -26
-23 -48 -51z m149 -174 c69 -142 70 -224 3 -294 -42 -44 -75 -56 -127 -47 -78
15 -132 101 -123 196 6 56 58 168 114 244 l37 49 29 -34 c15 -19 46 -70 67
-114z"/>
<path d="M4943 2049 c-96 -37 -182 -165 -171 -256 l3 -28 635 0 635 0 3 43 c6
83 -61 186 -152 235 -40 22 -49 22 -471 24 -411 2 -432 1 -482 -18z m893 -44
c56 -16 118 -71 140 -122 29 -68 74 -63 -566 -63 -641 0 -598 -5 -564 63 31
62 86 107 154 128 14 4 196 8 406 8 309 1 390 -2 430 -14z"/>
</g>
</svg>
